<?xml version="1.0" encoding="UTF-8" standalone="no"?>
<!DOCTYPE svg PUBLIC "-//W3C//DTD SVG 1.1//EN"
 "http://www.w3.org/Graphics/SVG/1.1/DTD/svg11.dtd">
<!-- Generated by graphviz version 14.1.5 (20260411.2331)
 -->
<!-- Title: DevOps_Deployment_Architecture Pages: 1 -->
<svg width="200pt" height="703pt"
 viewBox="0.00 0.00 200.00 703.00" xmlns="http://www.w3.org/2000/svg" xmlns:xlink="http://www.w3.org/1999/xlink">
<g id="graph0" class="graph" transform="scale(1 1) rotate(0) translate(4 698.75)">
<title>DevOps_Deployment_Architecture</title>
<polygon fill="white" stroke="none" points="-4,4 -4,-698.75 196.25,-698.75 196.25,4 -4,4"/>
<g id="clust1" class="cluster">
<title>cluster_azure</title>
<polygon fill="none" stroke="black" stroke-dasharray="5,2" points="17.12,-211.5 17.12,-434.75 175.12,-434.75 175.12,-211.5 17.12,-211.5"/>
<text xml:space="preserve" text-anchor="middle" x="96.12" y="-417.45" font-family="Arial" font-size="14.00">Microsoft Azure</text>
</g>
<!-- developer -->
<g id="node1" class="node">
<title>developer</title>
<ellipse fill="lightgreen" stroke="black" cx="96.12" cy="-676.75" rx="51.56" ry="18"/>
<text xml:space="preserve" text-anchor="middle" x="96.12" y="-671.33" font-family="Arial" font-size="14.00">Developer</text>
</g>
<!-- github -->
<g id="node2" class="node">
<title>github</title>
<polygon fill="lightblue" stroke="black" points="159.62,-622.75 32.62,-622.75 32.62,-586.75 159.62,-586.75 159.62,-622.75"/>
<text xml:space="preserve" text-anchor="middle" x="96.12" y="-599.33" font-family="Arial" font-size="14.00">GitHub Repository</text>
</g>
<!-- developer&#45;&gt;github -->
<g id="edge1" class="edge">
<title>developer&#45;&gt;github</title>
<path fill="none" stroke="black" d="M96.12,-658.45C96.12,-651.16 96.12,-642.48 96.12,-634.29"/>
<polygon fill="black" stroke="black" points="99.63,-634.37 96.13,-624.37 92.63,-634.37 99.63,-634.37"/>
</g>
<!-- github_actions -->
<g id="node3" class="node">
<title>github_actions</title>
<polygon fill="orange" stroke="black" points="169.38,-550.75 22.88,-550.75 22.88,-514.75 169.38,-514.75 169.38,-550.75"/>
<text xml:space="preserve" text-anchor="middle" x="96.12" y="-527.33" font-family="Arial" font-size="14.00">GitHub Actions CI/CD</text>
</g>
<!-- github&#45;&gt;github_actions -->
<g id="edge2" class="edge">
<title>github&#45;&gt;github_actions</title>
<path fill="none" stroke="black" d="M96.12,-586.45C96.12,-579.16 96.12,-570.48 96.12,-562.29"/>
<polygon fill="black" stroke="black" points="99.63,-562.37 96.13,-552.37 92.63,-562.37 99.63,-562.37"/>
</g>
<!-- ssh -->
<g id="node4" class="node">
<title>ssh</title>
<polygon fill="lightyellow" stroke="black" points="192.25,-478.75 0,-478.75 0,-442.75 192.25,-442.75 192.25,-478.75"/>
<text xml:space="preserve" text-anchor="middle" x="96.12" y="-455.32" font-family="Arial" font-size="14.00">SSH Deployment Automation</text>
</g>
<!-- github_actions&#45;&gt;ssh -->
<g id="edge3" class="edge">
<title>github_actions&#45;&gt;ssh</title>
<path fill="none" stroke="black" d="M96.12,-514.45C96.12,-507.16 96.12,-498.48 96.12,-490.29"/>
<polygon fill="black" stroke="black" points="99.63,-490.37 96.13,-480.37 92.63,-490.37 99.63,-490.37"/>
</g>
<!-- azure_vm -->
<g id="node5" class="node">
<title>azure_vm</title>
<polygon fill="lightcyan" stroke="black" points="152.12,-403 40.13,-403 40.13,-367 152.12,-367 152.12,-403"/>
<text xml:space="preserve" text-anchor="middle" x="96.12" y="-379.57" font-family="Arial" font-size="14.00">Azure Linux VM</text>
</g>
<!-- ssh&#45;&gt;azure_vm -->
<g id="edge4" class="edge">
<title>ssh&#45;&gt;azure_vm</title>
<path fill="none" stroke="black" d="M96.12,-442.27C96.12,-434.01 96.12,-423.92 96.12,-414.59"/>
<polygon fill="black" stroke="black" points="99.63,-414.87 96.13,-404.87 92.63,-414.87 99.63,-414.87"/>
</g>
<!-- docker -->
<g id="node6" class="node">
<title>docker</title>
<polygon fill="lightgrey" stroke="black" points="156.62,-331 35.62,-331 35.62,-291.5 156.62,-291.5 156.62,-331"/>
<text xml:space="preserve" text-anchor="middle" x="96.12" y="-313.7" font-family="Arial" font-size="14.00">Docker Container</text>
<text xml:space="preserve" text-anchor="middle" x="96.12" y="-297.95" font-family="Arial" font-size="14.00">(PHP + Apache)</text>
</g>
<!-- azure_vm&#45;&gt;docker -->
<g id="edge5" class="edge">
<title>azure_vm&#45;&gt;docker</title>
<path fill="none" stroke="black" d="M96.12,-366.63C96.12,-359.5 96.12,-351.02 96.12,-342.91"/>
<polygon fill="black" stroke="black" points="99.63,-342.99 96.13,-332.99 92.63,-342.99 99.63,-342.99"/>
</g>
<!-- nginx -->
<g id="node7" class="node">
<title>nginx</title>
<polygon fill="lightyellow" stroke="black" points="167.5,-255.5 24.75,-255.5 24.75,-219.5 167.5,-219.5 167.5,-255.5"/>
<text xml:space="preserve" text-anchor="middle" x="96.12" y="-232.07" font-family="Arial" font-size="14.00">Nginx Reverse Proxy</text>
</g>
<!-- docker&#45;&gt;nginx -->
<g id="edge6" class="edge">
<title>docker&#45;&gt;nginx</title>
<path fill="none" stroke="black" d="M96.12,-291.02C96.12,-283.75 96.12,-275.29 96.12,-267.33"/>
<polygon fill="black" stroke="black" points="99.63,-267.33 96.13,-257.33 92.63,-267.33 99.63,-267.33"/>
</g>
<!-- dns -->
<g id="node8" class="node">
<title>dns</title>
<polygon fill="lightblue" stroke="black" points="169.38,-183.5 22.88,-183.5 22.88,-147.5 169.38,-147.5 169.38,-183.5"/>
<text xml:space="preserve" text-anchor="middle" x="96.12" y="-160.07" font-family="Arial" font-size="14.00">Custom Domain DNS</text>
</g>
<!-- nginx&#45;&gt;dns -->
<g id="edge7" class="edge">
<title>nginx&#45;&gt;dns</title>
<path fill="none" stroke="black" d="M96.12,-219.2C96.12,-211.91 96.12,-203.23 96.12,-195.04"/>
<polygon fill="black" stroke="black" points="99.63,-195.12 96.13,-185.12 92.63,-195.12 99.63,-195.12"/>
</g>
<!-- domain -->
<g id="node9" class="node">
<title>domain</title>
<polygon fill="lightcyan" stroke="black" points="186.62,-111.5 5.62,-111.5 5.62,-72 186.62,-72 186.62,-111.5"/>
<text xml:space="preserve" text-anchor="middle" x="96.12" y="-94.2" font-family="Arial" font-size="14.00">app.auemeribetech.com.ng</text>
<text xml:space="preserve" text-anchor="middle" x="96.12" y="-78.45" font-family="Arial" font-size="14.00">HTTPS Enabled</text>
</g>
<!-- dns&#45;&gt;domain -->
<g id="edge8" class="edge">
<title>dns&#45;&gt;domain</title>
<path fill="none" stroke="black" d="M96.12,-147.13C96.12,-140 96.12,-131.52 96.12,-123.41"/>
<polygon fill="black" stroke="black" points="99.63,-123.49 96.13,-113.49 92.63,-123.49 99.63,-123.49"/>
</g>
<!-- users -->
<g id="node10" class="node">
<title>users</title>
<ellipse fill="lightgreen" stroke="black" cx="96.12" cy="-18" rx="52.56" ry="18"/>
<text xml:space="preserve" text-anchor="middle" x="96.12" y="-12.57" font-family="Arial" font-size="14.00">End Users</text>
</g>
<!-- domain&#45;&gt;users -->
<g id="edge9" class="edge">
<title>domain&#45;&gt;users</title>
<path fill="none" stroke="black" d="M96.12,-71.52C96.12,-64.25 96.12,-55.79 96.12,-47.83"/>
<polygon fill="black" stroke="black" points="99.63,-47.83 96.13,-37.83 92.63,-47.83 99.63,-47.83"/>
</g>
</g>
</svg>
